{"title":"Bloody 27 - Ask Your Parents Permission Edition (2012) DVDrip","uid":8315648,"size":961719356,"categoryP":"video","categoryS":"movies","magnet":"?xt=urn:btih:6f378073eaea2e3251a61a98ea6d7302c21070b3&amp;dn=Bloody+27+-+Ask+Your+Parents+Permission+Edition+%282012%29+DVDrip&amp;tr=udp%3A%2F%2Ftracker.openbittorrent.com%3A80&amp;tr=udp%3A%2F%2Fopen.demonii.com%3A1337&amp;tr=udp%3A%2F%2Ftracker.coppersurfer.tk%3A6969&amp;tr=udp%3A%2F%2Fexodus.desync.com%3A6969","seeders":1,"leechers":0,"uploader":"RadioResearch","files":3,"time":1364580592,"description":"*******************************************************************************\n         Bloody 27 - Ask Your Parents Permission Edition (2012) DVDrip\n*******************************************************************************\n\n-------------------------------------------------------------------------------\n                              General Information\n-------------------------------------------------------------------------------\nType.................: Movie\n\n\n\nVideo Format.........: AVI\nVideo Bitrate........: 1532\nResolution...........: 720 x 404\nColor................: 8 bit\nFPS..................: 23.976\nSource...............: DVD 16x9\nOriginal Format......: NTSC\nGenre................: Horror\nIMDb Rating..........: None yet\nMovie Information....: http://www.imdb.com/title/tt1977726/\n\n-------------------------------------------------------------------------------\n                               Post Information\n-------------------------------------------------------------------------------\nPosted by............: RadioResearch\nPosted on............: 3/29/2013\n\n-------------------------------------------------------------------------------\n                                 Release Notes\n-------------------------------------------------------------------------------\nSEEDBOX SUPPORTED!!\n\nWhen a college student (Annalisa Kyler) dissappears along the road, her friends \nquickly form a search party to find the lost woman. Unfortunately, these college \nslackers (Martin Seijo, Lauren Brown &amp; Kayte Giralt) are in way over their \nheads. Also trying to piece this mystery together is the local Sheriff (Allan \nMedina) and the coroner (Ed Donovan). Womanizing jerk Bruce (Michael Thomas \nDunn) and tomboy Vanessa (Carrie Grafton) decide to tag along for the wild ride.\n\nBloody 27 is a campy horror/comedy with a similar tone to the Evil Dead or \nHachet films. So if you want to laugh and scream at the same time, this may just \nbe the movie you are looking for! \n\nEnjoy!\n\nRadioResearch\n\nGeneral\nComplete name                            : G:AVIaviDVD_VOLUMEBloody 27 - Ask \nYour Parents Permission Edition (2012) DVDripDVD_VOLUME.Title2.avi\nFormat                                   : AVI\nFormat/Info                              : Audio Video Interleave\nFile size                                : 917 MiB\nDuration                                 : 1h 23mn\nOverall bit rate                         : 1 532 Kbps\nMovie name                               : DVD_VOLUME.Title2.DVDRip\nWriting application                      : Lavf53.32.100\nOriginal source form/Name                : DVD_VOLUME\n\nVideo\nID                                       : 0\nFormat                                   : MPEG-4 Visual\nFormat profile                           : Advanced Simple@L5\nFormat settings, BVOP                    : 2\nFormat settings, QPel                    : No\nFormat settings, GMC                     : No warppoints\nFormat settings, Matrix                  : Default (H.263)\nMuxing mode                              : Packed bitstream\nCodec ID                                 : XVID\nCodec ID/Hint                            : XviD\nDuration                                 : 1h 23mn\nBit rate                                 : 1 330 Kbps\nWidth                                    : 720 pixels\nHeight                                   : 404 pixels\nDisplay aspect ratio                     : 16:9\nFrame rate                               : 23.976 fps\nColor space                              : YUV\nChroma subsampling                       : 4:2:0\nBit depth                                : 8 bits\nScan type                                : Progressive\nCompression mode                         : Lossy\nBits/(Pixel*Frame)                       : 0.191\nStream size                              : 796 MiB (87%)\nWriting library                          : XviD 64\n\nAudio\nID                                       : 1\nFormat                                   : AC-3\nFormat/Info                              : Audio Coding 3\nMode extension                           : CM (complete main)\nFormat settings, Endianness              : Big\nCodec ID                                 : 2000\nDuration                                 : 1h 23mn\nBit rate mode                            : Constant\nBit rate                                 : 192 Kbps\nChannel(s)                               : 2 channels\nChannel positions                        : Front: L R\nSampling rate                            : 48.0 KHz\nBit depth                                : 16 bits\nCompression mode                         : Lossy\nStream size                              : 115 MiB (13%)\nAlignment                                : Aligned on interleaves\nInterleave, duration                     : 32 ms (0.77 video frame)\n\n\n\n\n-------------------------------------------------------------------------------\nGenerated with Cool NFO Creator - http://fly.to/coolbeans\n-------------------------------------------------------------------------------\n","torrent":{"xt":"urn:btih:6f378073eaea2e3251a61a98ea6d7302c21070b3","amp;dn":"Bloody+27+-+Ask+Your+Parents+Permission+Edition+%282012%29+DVDrip","amp;tr":["udp%3A%2F%2Ftracker.openbittorrent.com%3A80","udp%3A%2F%2Fopen.demonii.com%3A1337","udp%3A%2F%2Ftracker.coppersurfer.tk%3A6969","udp%3A%2F%2Fexodus.desync.com%3A6969"],"infoHash":"6f378073eaea2e3251a61a98ea6d7302c21070b3","infoHashBuffer":{"type":"Buffer","data":[111,55,128,115,234,234,46,50,81,166,26,152,234,109,115,2,194,16,112,179]},"announce":[],"urlList":[]}}